<svg xmlns="http://www.w3.org/2000/svg"  viewBox="0 0 64 64" width="64px" height="64px"><radialGradient id="HT0faz4O4Vh0F3ae~ONMba" cx="33" cy="32" r="28.609" gradientUnits="userSpaceOnUse" spreadMethod="reflect"><stop offset="0" stop-color="#efdcb1"/><stop offset="0" stop-color="#f2e0bb"/><stop offset=".011" stop-color="#f2e0bc"/><stop offset=".362" stop-color="#f9edd2"/><stop offset=".699" stop-color="#fef4df"/><stop offset="1" stop-color="#fff7e4"/></radialGradient><path fill="url(#HT0faz4O4Vh0F3ae~ONMba)" d="M53,34h5.241c2.868,0,5.442-2.082,5.731-4.936C64.303,25.789,61.711,23,58.5,23l-12.33,0 c-1.624,0-3.081-1.216-3.165-2.839C42.914,18.431,44.29,17,46,17h2.241c2.868,0,5.442-2.082,5.731-4.936 C54.303,8.789,51.711,6,48.5,6l-38,0C7.462,6,5,8.462,5,11.5v0c0,3.038,2.462,5.5,5.5,5.5H14c1.105,0,2,0.895,2,2v0 c0,1.105-0.895,2-2,2l-7.288,0c-2.347,0-4.453,1.704-4.689,4.038C1.752,27.718,3.873,30,6.5,30l6.33,0 c1.624,0,3.081,1.216,3.165,2.839C16.086,34.569,14.71,36,13,36H9.712c-2.347,0-4.453,1.704-4.689,4.038 C4.753,42.718,6.873,45,9.5,45h4.393c0.996,0,1.92,0.681,2.08,1.664C16.176,47.917,15.215,49,14,49H9.712 c-2.347,0-4.453,1.704-4.689,4.038C4.752,55.718,6.873,58,9.5,58h22c0.086,0,0.166-0.021,0.25-0.025C31.834,57.982,31.914,58,32,58 l8.386,0c1.67,0,3.195-1.122,3.537-2.757C44.392,52.998,42.668,51,40.5,51h-2.393c-0.996,0-1.92-0.681-2.08-1.664 C35.824,48.083,36.785,47,38,47l18.288,0c2.347,0,4.453-1.704,4.689-4.039C61.247,40.282,59.127,38,56.5,38h-3.393 c-0.996,0-1.92-0.681-2.08-1.664C50.824,35.083,51.785,34,53,34z"/><linearGradient id="HT0faz4O4Vh0F3ae~ONMbb" x1="31.996" x2="31.996" y1="52.998" y2="11.001" gradientUnits="userSpaceOnUse" spreadMethod="reflect"><stop offset="0" stop-color="#ff634d"/><stop offset=".204" stop-color="#fe6464"/><stop offset=".521" stop-color="#fc6581"/><stop offset=".794" stop-color="#fa6694"/><stop offset=".989" stop-color="#fa669a"/><stop offset="1" stop-color="#fa669a"/></linearGradient><path fill="url(#HT0faz4O4Vh0F3ae~ONMbb)" d="M51.933,12.058l0.003,0.003c1.413,1.412,1.414,3.702,0.001,5.114L17.167,51.939 c-1.412,1.412-3.701,1.412-5.112,0l0,0c-1.412-1.412-1.412-3.701,0-5.113L46.821,12.06C48.233,10.648,50.521,10.648,51.933,12.058z"/><linearGradient id="HT0faz4O4Vh0F3ae~ONMbc" x1="31.994" x2="31.994" y1="53.003" y2="10.997" gradientUnits="userSpaceOnUse" spreadMethod="reflect"><stop offset="0" stop-color="#ff634d"/><stop offset=".204" stop-color="#fe6464"/><stop offset=".521" stop-color="#fc6581"/><stop offset=".794" stop-color="#fa6694"/><stop offset=".989" stop-color="#fa669a"/><stop offset="1" stop-color="#fa669a"/></linearGradient><path fill="url(#HT0faz4O4Vh0F3ae~ONMbc)" d="M51.933,51.944L51.933,51.944c-1.412,1.412-3.701,1.412-5.113,0L12.054,17.168 c-1.411-1.412-1.411-3.701,0-5.112l0,0c1.412-1.412,3.701-1.412,5.113,0l34.766,34.776C53.345,48.244,53.345,50.533,51.933,51.944z"/></svg>