<svg width="40" height="31" viewBox="0 0 40 31" fill="none" xmlns="http://www.w3.org/2000/svg">
<g clip-path="url(#clip0_1115_2785)">
<path d="M37.3471 27.666C42.0342 22.9758 40.3278 13.6639 33.5357 6.86738C26.7436 0.0708189 17.4379 -1.63671 12.7508 3.05351C8.06363 7.74373 9.77004 17.0556 16.5621 23.8522C23.3542 30.6487 32.66 32.3563 37.3471 27.666Z" fill="white"/>
<path d="M23.4222 23.762C30.2143 16.9655 31.9207 7.65358 27.2336 2.96336C22.5464 -1.72686 13.2407 -0.0193289 6.4486 6.77723C-0.343489 13.5738 -2.04989 22.8857 2.63724 27.5759C7.32437 32.2661 16.6301 30.5586 23.4222 23.762Z" fill="white"/>
<path d="M11.7387 11.855H8.15173V22.6231H11.7387V11.855Z" fill="#282727"/>
<path d="M15.3258 19.0337V15.4443H4.56471V19.0337H15.3258Z" fill="#282727"/>
<path d="M25.4845 19.5171C24.6609 19.9886 24.3802 21.0475 24.8575 21.8822C25.3348 22.7169 26.3894 23.0113 27.213 22.5398L33.1777 19.1246C34.0013 18.6531 34.282 17.5942 33.8047 16.7595C33.3273 15.9248 32.2728 15.6304 31.4492 16.1019L25.4845 19.5171Z" fill="#282727"/>
<path d="M23.1988 14.9014C22.3752 15.3729 22.0945 16.4318 22.5718 17.2665C23.0491 18.1012 24.1037 18.3956 24.9273 17.924L30.892 14.5089C31.7156 14.0373 31.9963 12.9784 31.5189 12.1438C31.0416 11.3091 29.9871 11.0147 29.1635 11.4862L23.1988 14.9014Z" fill="#282727"/>
</g>
<defs>
<clipPath id="clip0_1115_2785">
<rect width="40" height="30" fill="white" transform="translate(-0.00671387 0.316406)"/>
</clipPath>
</defs>
</svg>
