<svg width="179" height="39" viewBox="0 0 179 39" fill="none" xmlns="http://www.w3.org/2000/svg">
<g clip-path="url(#clip0_1115_2783)">
<path d="M37.3471 33.666C42.0342 28.9758 40.3278 19.6639 33.5357 12.8674C26.7436 6.07082 17.4379 4.36329 12.7508 9.05351C8.06363 13.7437 9.77004 23.0556 16.5621 29.8522C23.3542 36.6487 32.66 38.3563 37.3471 33.666Z" fill="white"/>
<path d="M23.4222 29.762C30.2143 22.9655 31.9207 13.6536 27.2336 8.96336C22.5464 4.27314 13.2407 5.98067 6.4486 12.7772C-0.343489 19.5738 -2.04989 28.8857 2.63724 33.5759C7.32437 38.2661 16.6301 36.5586 23.4222 29.762Z" fill="white"/>
<path d="M11.7387 17.855H8.15173V28.6231H11.7387V17.855Z" fill="#282727"/>
<path d="M15.3258 25.0337V21.4443H4.56471V25.0337H15.3258Z" fill="#282727"/>
<path d="M25.4845 25.5171C24.6609 25.9886 24.3802 27.0475 24.8575 27.8822C25.3348 28.7169 26.3894 29.0113 27.213 28.5398L33.1777 25.1246C34.0013 24.6531 34.282 23.5942 33.8047 22.7595C33.3273 21.9248 32.2728 21.6304 31.4492 22.1019L25.4845 25.5171Z" fill="#282727"/>
<path d="M23.1988 20.9014C22.3752 21.3729 22.0945 22.4318 22.5718 23.2665C23.0491 24.1012 24.1037 24.3956 24.9273 23.924L30.892 20.5089C31.7156 20.0373 31.9963 18.9784 31.5189 18.1438C31.0416 17.3091 29.9871 17.0147 29.1635 17.4862L23.1988 20.9014Z" fill="#282727"/>
</g>
<path d="M60.4156 34.7592C53.1436 34.7592 49.4716 31.2312 49.4716 24.3192C49.4716 14.1672 54.1156 8.98319 63.2236 8.98319C65.5636 8.98319 68.4796 9.52319 69.9196 10.4232C70.4596 10.7472 70.7476 11.0352 70.7476 11.5032C70.7476 12.3672 69.2356 15.5352 68.1916 15.5352C67.3276 15.5352 65.6716 14.4912 62.7916 14.4912C58.2556 14.4912 55.9516 17.5152 55.9516 23.4912C55.9516 28.0992 57.6436 29.3592 61.1716 29.3592C62.1436 29.3592 63.2236 29.2152 64.1956 28.9632L64.6276 24.6792H61.7116C60.8116 24.6792 60.5236 24.1032 60.6676 22.6992L60.7756 21.3312C60.9196 20.1072 61.3876 19.5312 62.2876 19.5312H69.2356C70.4596 19.5312 70.8916 19.9632 70.7836 20.9712L69.7036 31.2312C69.6316 32.1312 69.1996 32.4912 67.8676 33.2112C66.0316 34.1472 62.8996 34.7592 60.4156 34.7592ZM75.8191 34.5432C74.1271 34.5432 73.3351 34.0752 73.4071 33.1392L75.7831 10.5672C75.8911 9.63119 76.6831 9.19919 78.4831 9.19919H80.1391C81.5071 9.19919 82.2631 9.52319 82.7311 10.4952L86.9431 19.4952C87.2671 20.1432 87.5551 20.9712 87.6991 21.4032C87.9871 20.8632 88.4911 20.0352 88.8511 19.4952L94.8991 10.5312C95.5831 9.52319 96.4831 9.19919 97.9951 9.19919H99.6151C101.343 9.19919 102.135 9.66719 102.063 10.6032L99.6871 33.1752C99.5791 34.1112 98.7511 34.5432 96.9511 34.5432H96.0511C94.3231 34.5432 93.5671 34.0752 93.6391 33.1392L94.7911 22.0512C94.9351 21.0432 95.0431 19.9632 95.1871 19.2792L95.0431 19.2432C94.7551 19.7472 94.3231 20.3952 93.9991 20.8632L89.5711 27.3432C88.9951 28.2072 88.4911 28.4592 87.4111 28.4592H86.6191C85.6471 28.4592 85.1431 28.1712 84.7471 27.3432L81.6511 20.8632C81.4351 20.3952 81.1471 19.7472 80.9671 19.2432L80.8231 19.2792C80.7871 19.9632 80.7151 21.0432 80.6071 22.0512L79.4551 33.1752C79.3471 34.1112 78.5191 34.5432 76.7191 34.5432H75.8191ZM105.403 34.4712C104.107 34.4712 103.639 34.0392 103.747 32.9592L106.087 10.5672C106.195 9.63119 106.987 9.19919 108.787 9.19919H109.831C111.559 9.19919 112.351 9.66719 112.243 10.6032L110.335 28.9632H117.607C118.507 28.9632 118.831 29.5752 118.687 30.9792L118.543 32.5272C118.399 33.8952 117.931 34.4712 117.067 34.4712H105.403ZM123.452 34.5432C121.868 34.5432 121.076 34.0752 121.148 33.1392L123.524 10.5672C123.632 9.63119 124.388 9.19919 126.116 9.19919H127.376C128.996 9.19919 129.788 9.66719 129.716 10.6032L127.34 33.1752C127.232 34.1112 126.44 34.5432 124.712 34.5432H123.452ZM133.792 34.5432C132.1 34.5432 131.308 34.0752 131.38 33.1392L133.756 10.5672C133.864 9.63119 134.656 9.19919 136.456 9.19919H137.32C138.976 9.19919 139.552 9.41519 140.272 10.5672L146.5 21.0792C147.112 22.0512 147.76 23.2032 148.084 23.9592L148.228 23.9232C148.192 23.0952 148.3 21.9792 148.444 20.8272L149.488 10.5672C149.596 9.63119 150.388 9.19919 152.152 9.19919H153.124C154.852 9.19919 155.644 9.66719 155.572 10.6032L153.196 33.1752C153.088 34.1112 152.26 34.5432 150.46 34.5432H149.596C148.012 34.5432 147.436 34.3272 146.824 33.2832L140.452 22.6272C139.696 21.4032 139.12 20.3232 138.868 19.7112L138.724 19.7472C138.76 20.5032 138.652 21.6192 138.544 22.8792L137.464 33.1752C137.356 34.0392 136.528 34.5432 134.764 34.5432H133.792ZM159.667 34.5432C157.975 34.5432 157.183 34.0752 157.255 33.1392L159.631 10.5672C159.739 9.63119 160.531 9.19919 162.331 9.19919H163.375C165.103 9.19919 165.895 9.66719 165.823 10.6032L164.851 19.6392H164.995L171.259 10.4592C171.835 9.59519 172.483 9.19919 174.175 9.19919H175.867C177.415 9.19919 177.991 9.48719 177.991 10.0632C177.991 10.4592 177.811 10.8552 177.451 11.3592L170.107 21.6912L175.615 32.5632C175.867 33.0672 175.975 33.3912 175.975 33.7152C175.975 34.3272 175.219 34.5432 173.563 34.5432H171.943C170.251 34.5432 169.639 34.2552 169.243 33.4272L164.563 23.8512H164.419L163.447 33.1752C163.339 34.1112 162.511 34.5432 160.711 34.5432H159.667Z" fill="white"/>
<defs>
<clipPath id="clip0_1115_2783">
<rect width="40" height="30" fill="white" transform="translate(-0.00671387 6.31641)"/>
</clipPath>
</defs>
</svg>
