<svg width="240" height="38" viewBox="0 0 240 38" fill="none" xmlns="http://www.w3.org/2000/svg">
<g clip-path="url(#clip0_1115_2783)">
<path d="M37.3471 33.666C42.0342 28.9758 40.3278 19.6639 33.5357 12.8674C26.7436 6.07082 17.4379 4.36329 12.7508 9.05351C8.06363 13.7437 9.77004 23.0556 16.5621 29.8522C23.3542 36.6487 32.66 38.3563 37.3471 33.666Z" fill="#4B164C"/>
<path d="M23.4222 29.762C30.2143 22.9655 31.9207 13.6536 27.2336 8.96336C22.5464 4.27314 13.2407 5.98067 6.4486 12.7772C-0.343489 19.5738 -2.04989 28.8857 2.63724 33.5759C7.32437 38.2661 16.6301 36.5586 23.4222 29.762Z" fill="#4B164C"/>
<path d="M11.7387 17.855H8.15173V28.6231H11.7387V17.855Z" fill="#282727"/>
<path d="M15.3258 25.0337V21.4443H4.56471V25.0337H15.3258Z" fill="#282727"/>
<path d="M25.4845 25.5171C24.6609 25.9886 24.3802 27.0475 24.8575 27.8822C25.3348 28.7169 26.3894 29.0113 27.213 28.5398L33.1777 25.1246C34.0013 24.6531 34.282 23.5942 33.8047 22.7595C33.3273 21.9248 32.2728 21.6304 31.4492 22.1019L25.4845 25.5171Z" fill="#282727"/>
<path d="M23.1988 20.9014C22.3752 21.3729 22.0945 22.4318 22.5718 23.2665C23.0491 24.1012 24.1037 24.3956 24.9273 23.924L30.892 20.5089C31.7156 20.0373 31.9963 18.9784 31.5189 18.1438C31.0416 17.3091 29.9871 17.0147 29.1635 17.4862L23.1988 20.9014Z" fill="#282727"/>
</g>
<path d="M55.2998 33.072C54.7238 33.072 54.2678 33.012 53.9318 32.892C53.6198 32.748 53.4398 32.532 53.3918 32.244L50.0798 8.988C50.0318 8.58 50.1998 8.268 50.5838 8.052C50.9918 7.836 51.6038 7.728 52.4198 7.728H53.3558C54.0518 7.728 54.5918 7.824 54.9758 8.016C55.3838 8.184 55.6118 8.46 55.6598 8.844L57.1358 20.436C57.2558 21.612 57.3638 22.788 57.4598 23.964C57.5558 25.14 57.6158 26.016 57.6398 26.592H57.7838C57.9518 25.848 58.1918 24.9 58.5038 23.748C58.8398 22.572 59.1638 21.468 59.4758 20.436L63.6878 8.484C63.8078 8.196 64.0358 8.004 64.3718 7.908C64.7078 7.788 65.1638 7.728 65.7398 7.728H67.1078C67.6838 7.728 68.1398 7.788 68.4758 7.908C68.8118 8.004 68.9918 8.196 69.0158 8.484L70.5998 20.436C70.7198 21.396 70.8278 22.464 70.9238 23.64C71.0438 24.792 71.1278 25.776 71.1758 26.592H71.3198C71.5358 25.752 71.7998 24.744 72.1118 23.568C72.4478 22.392 72.7598 21.348 73.0478 20.436L77.0798 8.844C77.1998 8.46 77.4758 8.184 77.9078 8.016C78.3398 7.824 78.9038 7.728 79.5998 7.728H79.9958C80.7638 7.728 81.3278 7.824 81.6878 8.016C82.0718 8.208 82.2038 8.496 82.0838 8.88L73.7318 32.316C73.6358 32.556 73.3838 32.748 72.9758 32.892C72.5918 33.012 72.1598 33.072 71.6798 33.072H69.0518C68.5238 33.072 68.0798 33.012 67.7198 32.892C67.3838 32.748 67.1918 32.556 67.1438 32.316L65.5958 20.544C65.5478 20.04 65.4998 19.548 65.4518 19.068C65.4278 18.564 65.4038 18.108 65.3798 17.7C65.3558 17.268 65.3318 16.932 65.3078 16.692H65.1638C65.0198 17.244 64.8398 17.904 64.6238 18.672C64.4078 19.44 64.2038 20.1 64.0118 20.652L59.9438 32.316C59.8478 32.556 59.6078 32.748 59.2238 32.892C58.8398 33.012 58.3958 33.072 57.8918 33.072H55.2998ZM83.9139 33.072C83.7219 33.072 83.4579 33.048 83.1219 33C82.7859 32.976 82.4859 32.892 82.2219 32.748C81.9819 32.58 81.8619 32.316 81.8619 31.956L84.2739 8.88C84.3459 8.112 85.1019 7.728 86.5419 7.728H87.8019C88.0179 7.728 88.2819 7.752 88.5939 7.8C88.9299 7.824 89.2179 7.92 89.4579 8.088C89.7219 8.232 89.8539 8.484 89.8539 8.844L87.4419 31.92C87.3699 32.688 86.6139 33.072 85.1739 33.072H83.9139ZM94.2892 33.072C93.5212 33.072 92.9812 32.976 92.6692 32.784C92.3812 32.592 92.2372 32.304 92.2372 31.92L94.6492 8.88C94.7212 8.112 95.4772 7.728 96.9172 7.728H98.4652C98.9932 7.728 99.4492 7.788 99.8332 7.908C100.217 8.028 100.529 8.292 100.769 8.7L107.645 21.372C107.885 21.804 108.077 22.164 108.221 22.452C108.365 22.74 108.473 22.968 108.545 23.136C108.617 23.28 108.653 23.388 108.653 23.46L108.905 23.388C108.881 22.908 108.881 22.332 108.905 21.66C108.929 20.964 108.989 20.208 109.085 19.392L110.201 8.88C110.273 8.112 111.029 7.728 112.469 7.728H113.513C114.281 7.728 114.809 7.824 115.097 8.016C115.409 8.208 115.565 8.496 115.565 8.88L113.153 31.92C113.081 32.688 112.325 33.072 110.885 33.072H109.517C108.989 33.072 108.533 33.012 108.149 32.892C107.765 32.772 107.453 32.508 107.213 32.1L100.049 19.032C99.7372 18.408 99.5212 17.976 99.4012 17.736C99.2812 17.496 99.1852 17.292 99.1132 17.124L98.8612 17.232C98.9092 17.616 98.9212 18.06 98.8972 18.564C98.8972 19.044 98.8612 19.596 98.7892 20.22L97.6012 31.92C97.5292 32.688 96.7732 33.072 95.3332 33.072H94.2892ZM119.804 33.072C119.036 33.072 118.496 32.976 118.184 32.784C117.896 32.592 117.752 32.304 117.752 31.92L120.164 8.88C120.236 8.112 120.992 7.728 122.432 7.728H123.692C124.46 7.728 124.988 7.824 125.276 8.016C125.588 8.208 125.744 8.496 125.744 8.88L124.736 18.528L124.88 18.564L132.188 8.412C132.38 8.148 132.668 7.968 133.052 7.872C133.436 7.776 133.892 7.728 134.42 7.728H136.112C137.432 7.728 138.092 7.896 138.092 8.232C138.092 8.448 137.972 8.712 137.732 9.024L129.668 19.68L136.256 31.776C136.328 31.92 136.376 32.052 136.4 32.172C136.448 32.268 136.472 32.352 136.472 32.424C136.472 32.616 136.328 32.772 136.04 32.892C135.752 33.012 135.212 33.072 134.42 33.072H132.332C131.756 33.072 131.288 33.024 130.928 32.928C130.568 32.832 130.328 32.652 130.208 32.388L124.556 21.444L124.412 21.48L123.332 31.92C123.26 32.688 122.504 33.072 121.064 33.072H119.804ZM139.034 25.368C138.698 25.368 138.47 25.236 138.35 24.972C138.23 24.708 138.194 24.288 138.242 23.712L138.314 22.956C138.362 22.452 138.482 22.092 138.674 21.876C138.866 21.636 139.13 21.516 139.466 21.516H146.99C147.326 21.516 147.554 21.648 147.674 21.912C147.794 22.152 147.83 22.524 147.782 23.028L147.71 23.784C147.662 24.36 147.542 24.768 147.35 25.008C147.158 25.248 146.894 25.368 146.558 25.368H139.034ZM155.39 33.072C154.814 33.072 154.358 33.012 154.022 32.892C153.71 32.748 153.53 32.532 153.482 32.244L150.17 8.988C150.122 8.58 150.29 8.268 150.674 8.052C151.082 7.836 151.694 7.728 152.51 7.728H153.446C154.142 7.728 154.682 7.824 155.066 8.016C155.474 8.184 155.702 8.46 155.75 8.844L157.226 20.436C157.346 21.612 157.454 22.788 157.55 23.964C157.646 25.14 157.706 26.016 157.73 26.592H157.874C158.042 25.848 158.282 24.9 158.594 23.748C158.93 22.572 159.254 21.468 159.566 20.436L163.778 8.484C163.898 8.196 164.126 8.004 164.462 7.908C164.798 7.788 165.254 7.728 165.83 7.728H167.198C167.774 7.728 168.23 7.788 168.566 7.908C168.902 8.004 169.082 8.196 169.106 8.484L170.69 20.436C170.81 21.396 170.918 22.464 171.014 23.64C171.134 24.792 171.218 25.776 171.266 26.592H171.41C171.626 25.752 171.89 24.744 172.202 23.568C172.538 22.392 172.85 21.348 173.138 20.436L177.17 8.844C177.29 8.46 177.566 8.184 177.998 8.016C178.43 7.824 178.994 7.728 179.69 7.728H180.086C180.854 7.728 181.418 7.824 181.778 8.016C182.162 8.208 182.294 8.496 182.174 8.88L173.822 32.316C173.726 32.556 173.474 32.748 173.066 32.892C172.682 33.012 172.25 33.072 171.77 33.072H169.142C168.614 33.072 168.17 33.012 167.81 32.892C167.474 32.748 167.282 32.556 167.234 32.316L165.686 20.544C165.638 20.04 165.59 19.548 165.542 19.068C165.518 18.564 165.494 18.108 165.47 17.7C165.446 17.268 165.422 16.932 165.398 16.692H165.254C165.11 17.244 164.93 17.904 164.714 18.672C164.498 19.44 164.294 20.1 164.102 20.652L160.034 32.316C159.938 32.556 159.698 32.748 159.314 32.892C158.93 33.012 158.486 33.072 157.982 33.072H155.39ZM184.004 33.072C183.812 33.072 183.548 33.048 183.212 33C182.876 32.976 182.576 32.892 182.312 32.748C182.072 32.58 181.952 32.316 181.952 31.956L184.364 8.88C184.436 8.112 185.192 7.728 186.632 7.728H187.892C188.108 7.728 188.372 7.752 188.684 7.8C189.02 7.824 189.308 7.92 189.548 8.088C189.812 8.232 189.944 8.484 189.944 8.844L187.532 31.92C187.46 32.688 186.704 33.072 185.264 33.072H184.004ZM194.379 33.072C193.611 33.072 193.071 32.976 192.759 32.784C192.471 32.592 192.327 32.304 192.327 31.92L194.739 8.88C194.811 8.112 195.567 7.728 197.007 7.728H198.555C199.083 7.728 199.539 7.788 199.923 7.908C200.307 8.028 200.619 8.292 200.859 8.7L207.735 21.372C207.975 21.804 208.167 22.164 208.311 22.452C208.455 22.74 208.563 22.968 208.635 23.136C208.707 23.28 208.743 23.388 208.743 23.46L208.995 23.388C208.971 22.908 208.971 22.332 208.995 21.66C209.019 20.964 209.079 20.208 209.175 19.392L210.291 8.88C210.363 8.112 211.119 7.728 212.559 7.728H213.603C214.371 7.728 214.899 7.824 215.187 8.016C215.499 8.208 215.655 8.496 215.655 8.88L213.243 31.92C213.171 32.688 212.415 33.072 210.975 33.072H209.607C209.079 33.072 208.623 33.012 208.239 32.892C207.855 32.772 207.543 32.508 207.303 32.1L200.139 19.032C199.827 18.408 199.611 17.976 199.491 17.736C199.371 17.496 199.275 17.292 199.203 17.124L198.951 17.232C198.999 17.616 199.011 18.06 198.987 18.564C198.987 19.044 198.951 19.596 198.879 20.22L197.691 31.92C197.619 32.688 196.863 33.072 195.423 33.072H194.379ZM219.894 33.072C219.126 33.072 218.586 32.976 218.274 32.784C217.986 32.592 217.842 32.304 217.842 31.92L220.254 8.88C220.326 8.112 221.082 7.728 222.522 7.728H223.782C224.55 7.728 225.078 7.824 225.366 8.016C225.678 8.208 225.834 8.496 225.834 8.88L224.826 18.528L224.97 18.564L232.278 8.412C232.47 8.148 232.758 7.968 233.142 7.872C233.526 7.776 233.982 7.728 234.51 7.728H236.202C237.522 7.728 238.182 7.896 238.182 8.232C238.182 8.448 238.062 8.712 237.822 9.024L229.758 19.68L236.346 31.776C236.418 31.92 236.466 32.052 236.49 32.172C236.538 32.268 236.562 32.352 236.562 32.424C236.562 32.616 236.418 32.772 236.13 32.892C235.842 33.012 235.302 33.072 234.51 33.072H232.422C231.846 33.072 231.378 33.024 231.018 32.928C230.658 32.832 230.418 32.652 230.298 32.388L224.646 21.444L224.502 21.48L223.422 31.92C223.35 32.688 222.594 33.072 221.154 33.072H219.894Z" fill="#4B164C"/>
<defs>
<clipPath id="clip0_1115_2783">
<rect width="40" height="30" fill="white" transform="translate(-0.00671387 6.31641)"/>
</clipPath>
</defs>
</svg>
