<?xml version="1.0" encoding="iso-8859-1"?>
<!-- Uploaded to: SVG Repo, www.svgrepo.com, Generator: SVG Repo Mixer Tools -->
<svg fill="#000000" height="800px" width="800px" version="1.1" id="Capa_1" xmlns="http://www.w3.org/2000/svg" xmlns:xlink="http://www.w3.org/1999/xlink" 
	 viewBox="0 0 295.326 295.326" xml:space="preserve">
<g>
	<path d="M252.512,155.763c-1.766-12.965-7.037-24.98-14.927-34.748c-4.617-5.714-10.214-10.518-16.214-14.104V73.919
		C221.37,33.151,188.538,0,147.772,0h-0.137C106.868,0,73.37,33.151,73.37,73.919v32.995c-6,3.588-11.262,8.389-15.875,14.1
		c-7.893,9.767-12.917,21.783-14.683,34.749c-2.806,20.585,2.918,42.913,16.471,64.57c15.309,24.462,40.633,48.37,75.228,71.061
		c3.924,2.573,8.489,3.933,13.183,3.933c4.694,0,9.254-1.359,13.177-3.932c34.595-22.691,59.9-46.6,75.209-71.062
		C249.632,198.676,255.317,176.348,252.512,155.763z M135.37,204.551c-6-4.011-10.5-11.123-10.5-19.217
		c0-12.498,10.252-22.666,22.751-22.666c12.498,0,22.541,10.168,22.541,22.666c0,8.094-3.792,15.207-10.792,19.217V227
		c0,6.627-5.373,12-12,12s-12-5.373-12-12V204.551z M147.635,16h0.137c31.944,0,57.599,25.975,57.599,57.919v26.521
		c-6-1.403-11.01-2.12-16.397-2.12c-16.287,0-30.939,6.443-42.274,18.341c-14.989-14.772-30.814-18.122-41.959-18.123
		c-4.962,0-10.37,0.645-15.37,1.912v-26.53C89.37,41.975,115.691,16,147.635,16z"
		className="no-message__icon-path"
		/>
</g>
</svg>