<svg width="375" height="586" viewBox="0 0 375 586" fill="none" xmlns="http://www.w3.org/2000/svg">
<path d="M285.727 446.625C237.669 458.644 143.134 428.556 62.0553 464.682C-45.676 512.683 -84.845 459.271 -104.997 390.655C-118.543 344.529 -163.829 273.404 -87.5898 240.937C7.70868 200.354 63.1915 253.887 154.959 199.848C246.727 145.809 408.364 80.0136 476.177 98.9489C519.931 111.166 513.955 155.579 523.446 176.88C530.992 193.815 511.315 285.511 476.105 321.331C429.632 368.61 344.303 431.976 285.727 446.625Z" fill="white"/>
<g clip-path="url(#clip0_1115_3024)">
<path d="M161.773 166.678L159.655 172.451C159.655 172.451 157.704 180.532 159.992 183.755C162.276 186.973 162.784 211.649 160.329 213.469C157.875 215.295 191.442 196.573 191.442 196.573C191.442 196.573 178.338 163.454 178.116 163.334C177.895 163.213 169.308 160.296 169.308 160.296L161.783 166.678H161.773Z" fill="#5571FF"/>
<path d="M183.63 195.213L172.382 199.243V181.601H182.583L183.63 195.213Z" fill="#F3A3A6"/>
<path d="M149.248 295.375C148.639 299.415 146.164 302.315 143.724 301.849C141.285 301.383 139.796 297.726 140.41 293.681C140.631 292.063 141.219 290.528 142.125 289.218L144.912 272.13L152.497 273.862L148.941 290.523C149.409 292.102 149.514 293.763 149.248 295.375Z" fill="#F3A3A6"/>
<path d="M179.399 392.735H168.866V409.023H179.399V392.735Z" fill="#F3A3A6"/>
<path d="M158.609 418.88C157.502 418.88 156.516 418.852 155.772 418.776C152.975 418.496 150.304 416.243 148.961 414.927C148.357 414.335 148.166 413.392 148.478 412.581C148.704 412 149.152 411.561 149.71 411.391L157.105 409.089L169.077 400.284L169.213 400.547C169.263 400.646 170.44 402.954 170.833 404.511C170.983 405.103 170.943 405.596 170.717 405.98C170.561 406.243 170.34 406.397 170.164 406.484C170.38 406.731 171.059 407.236 173.152 407.597C176.205 408.124 176.849 404.675 176.874 404.533L176.894 404.418L176.985 404.352C178.438 403.332 179.334 402.866 179.641 402.965C179.832 403.025 180.154 403.135 181.024 412.526C181.109 412.822 181.718 414.982 181.306 417.049C180.858 419.297 171.844 418.524 170.038 418.348C169.987 418.354 163.237 418.88 158.614 418.88L158.609 418.88Z" fill="#2F2E43"/>
<path d="M209.395 379.943L200.457 386.018L208.366 399.838L217.304 393.763L209.395 379.943Z" fill="#F3A3A6"/>
<path d="M197.523 416.649C196.286 416.649 195.149 416.484 194.339 416.331C193.544 416.177 192.921 415.486 192.79 414.62C192.699 413.995 192.865 413.365 193.258 412.899L198.414 406.682L204.299 392.307L204.54 392.45C204.631 392.505 206.749 393.782 207.84 394.878C208.258 395.295 208.464 395.739 208.454 396.194C208.449 396.512 208.338 396.764 208.228 396.945C208.529 397.033 209.349 397.066 211.301 396.167C214.148 394.856 213.022 391.556 212.971 391.419L212.931 391.309L212.976 391.205C213.716 389.5 214.244 388.59 214.556 388.497C214.752 388.437 215.074 388.343 220.371 395.816C220.587 396.013 222.151 397.499 222.805 399.489C223.515 401.654 215.491 406.199 213.877 407.087C213.826 407.131 205.431 413.781 201.98 415.673C200.612 416.424 198.992 416.654 197.518 416.654L197.523 416.649Z" fill="#2F2E43"/>
<path d="M187.156 256.527H157.663L154.987 286.428L166.698 396.907H181.753L175.732 333.098L200.154 390.706L213.535 380.498L194.465 326.717C194.465 326.717 201.276 279.865 195.924 268.193C190.571 256.527 187.156 256.527 187.156 256.527Z" fill="#2F2E43"/>
<path d="M201.824 258.353H150.641L169.042 192.357H189.45L201.824 258.353Z" fill="#4B164C"/>
<path d="M172.261 192.362C172.261 192.362 159.55 191.995 158.212 195.646C156.874 199.292 141.149 286.071 141.149 286.071H151.521L172.266 192.362L172.261 192.362Z" fill="#4B164C"/>
<path d="M173.775 186.48C179.965 186.48 184.983 181.011 184.983 174.265C184.983 167.519 179.965 162.051 173.775 162.051C167.586 162.051 162.568 167.519 162.568 174.265C162.568 181.011 167.586 186.48 173.775 186.48Z" fill="#F3A3A6"/>
<path d="M175.948 155.291C175.948 155.291 189.44 151.525 193.569 171.091C193.569 171.091 193.68 176.195 196.024 178.262C198.368 180.329 197.584 191.025 197.584 191.025C197.584 191.025 202.045 199.045 198.253 202.691C198.253 202.691 196.578 210.103 199.032 214.357C201.487 218.612 210.743 242.01 195.35 243.435C195.35 243.435 187.543 238.298 191.225 222.986C194.907 207.674 190.778 199.215 190.778 199.215C190.778 199.215 178.956 194.544 179.626 184.577C180.295 174.611 172.04 164.764 171.487 164.891C170.933 165.017 165.128 161.365 162.563 172.549L159.816 172.039C159.816 172.039 158.664 153.224 175.948 155.291Z" fill="#5571FF"/>
<path d="M210.562 293.417C211.311 297.43 209.938 301.098 207.503 301.608C205.069 302.118 202.488 299.272 201.744 295.259C201.427 293.659 201.477 292.003 201.889 290.424L198.927 273.369L206.583 272.047L208.69 288.999C209.641 290.292 210.28 291.806 210.562 293.417Z" fill="#F3A3A6"/>
<path d="M180.531 192.439C180.531 192.439 191.728 190.893 193.066 194.539C194.404 198.184 210.129 284.964 210.129 284.964H199.757L180.531 192.439Z" fill="#4B164C"/>
<path d="M211.004 283.27C208.288 286.099 207.488 289.964 209.224 291.893C210.954 293.829 214.561 293.1 217.282 290.265C218.384 289.152 219.209 287.76 219.697 286.203L231.065 274.043L225.471 268.199L214.863 280.803C213.404 281.274 212.086 282.119 211.014 283.264L211.004 283.27Z" fill="#F3A3A6"/>
<path d="M215.436 277.579L236.417 248.271L247.459 216.775C248.666 213.338 251.206 210.744 254.436 209.664C257.665 208.584 261.106 209.171 263.873 211.282C268.395 214.725 269.838 221.32 267.233 226.621L250.215 261.231L250.19 261.286L221.07 285.309L215.436 277.59V277.579Z" fill="#F8E7F6"/>
<path d="M264.607 213.376L251.518 218.063V197.538H263.39L264.607 213.376Z" fill="#F3A3A6"/>
<path d="M253.138 203.217C260.339 203.217 266.176 196.855 266.176 189.007C266.176 181.159 260.339 174.797 253.138 174.797C245.937 174.797 240.099 181.159 240.099 189.007C240.099 196.855 245.937 203.217 253.138 203.217Z" fill="#F3A3A6"/>
<path d="M256.458 190.12L254.662 192.499L251.413 186.299C251.413 186.299 247.263 186.535 247.263 183.174C247.263 179.819 243.455 179.725 243.455 179.725C243.455 179.725 238.062 169.468 249.229 172.171C249.229 172.171 256.971 166.387 260.824 171.332C260.824 171.332 272.63 177.812 269.25 189.095L263.636 200.723L262.363 198.091C262.363 198.091 263.133 187.039 256.458 190.12Z" fill="#4B164C"/>
<path d="M268.199 407.855H257.665V424.143H268.199V407.855Z" fill="#F3A3A6"/>
<path d="M247.403 434C246.297 434 245.311 433.973 244.566 433.896C241.769 433.616 239.098 431.363 237.755 430.047C237.152 429.455 236.961 428.512 237.272 427.701C237.499 427.12 237.946 426.681 238.505 426.511L245.899 424.209L257.871 415.404L258.007 415.667C258.058 415.766 259.235 418.074 259.627 419.631C259.778 420.223 259.738 420.716 259.511 421.1C259.355 421.363 259.134 421.517 258.958 421.605C259.174 421.851 259.853 422.356 261.946 422.717C264.999 423.244 265.643 419.795 265.668 419.653L265.688 419.538L265.779 419.472C267.233 418.452 268.128 417.986 268.435 418.085C268.626 418.145 268.948 418.255 269.818 427.646C269.904 427.942 270.512 430.102 270.1 432.169C269.652 434.417 260.638 433.644 258.832 433.468C258.782 433.474 252.031 434 247.408 434L247.403 434Z" fill="#2F2E43"/>
<path d="M290.505 383.443L282.39 390.76L291.915 403.309L300.031 395.992L290.505 383.443Z" fill="#F3A3A6"/>
<path d="M289.783 418.008C288.928 418.776 288.154 419.439 287.54 419.899C285.221 421.626 281.846 421.747 280.045 421.665C279.235 421.626 278.536 421.034 278.299 420.19C278.133 419.581 278.224 418.935 278.551 418.414L282.902 411.501L286.977 396.402L287.233 396.512C287.329 396.55 289.582 397.515 290.8 398.442C291.262 398.793 291.519 399.204 291.569 399.653C291.604 399.966 291.524 400.24 291.438 400.432C291.75 400.47 292.565 400.388 294.391 399.215C297.052 397.504 295.533 394.396 295.463 394.264L295.412 394.16L295.443 394.05C295.966 392.252 296.383 391.276 296.68 391.139C296.866 391.052 297.173 390.909 303.335 397.548C303.577 397.713 305.307 398.957 306.197 400.837C307.168 402.882 299.769 408.551 298.275 409.664C298.239 409.702 293.345 414.795 289.783 418.008Z" fill="#2F2E43"/>
<path d="M240.245 282.25H276.378L268.349 412.416H256.307L240.25 282.25L240.245 282.25Z" fill="#2F2E43"/>
<path d="M247.605 289.421L240.245 282.25L243.922 353.838L285.075 396.496L295.337 387.258L271.358 353.35L247.605 289.421Z" fill="#2F2E43"/>
<path d="M247.605 205.679L265.447 202.521L270.99 213.08C278.033 226.501 280.905 242.048 279.18 257.399L276.378 282.25H240.245L247.605 205.679Z" fill="#F8E7F6"/>
<path d="M211.15 288.407C208.152 290.879 206.95 294.613 208.464 296.751C209.978 298.889 213.64 298.62 216.638 296.148C217.851 295.177 218.821 293.9 219.465 292.414L232.041 281.768L227.101 275.255L215.225 286.444C213.726 286.729 212.327 287.403 211.14 288.407L211.15 288.407Z" fill="#F3A3A6"/>
<path d="M216.155 283.308L240.099 256.834L254.401 226.939C255.96 223.677 258.762 221.419 262.087 220.75C265.407 220.081 268.762 221.101 271.292 223.54C275.422 227.531 276.156 234.264 273.007 239.198L252.439 271.433L252.409 271.483L220.939 291.68L216.16 283.303L216.155 283.308Z" fill="#F8E7F6"/>
</g>
<defs>
<clipPath id="clip0_1115_3024">
<rect width="270.448" height="279" fill="white" transform="translate(80.9315 155)"/>
</clipPath>
</defs>
</svg>
