<svg width="227" height="38" viewBox="0 0 227 38" fill="none" xmlns="http://www.w3.org/2000/svg">
<g clip-path="url(#clip0_1_3)">
<path d="M37.3471 27.6659C42.0343 22.9756 40.3278 13.6638 33.5358 6.8672C26.7437 0.0706358 17.4379 -1.63689 12.7508 3.05333C8.06365 7.74354 9.77005 17.0554 16.5621 23.852C23.3542 30.6485 32.66 32.3561 37.3471 27.6659Z" fill="#4B164C"/>
<path d="M23.4222 23.7623C30.2143 16.9657 31.9207 7.65382 27.2336 2.9636C22.5465 -1.72661 13.2407 -0.0190848 6.44862 6.77748C-0.34347 13.574 -2.04988 22.8859 2.63726 27.5761C7.32439 32.2663 16.6301 30.5588 23.4222 23.7623Z" fill="#4B164C"/>
<path d="M11.7388 11.855H8.15179V22.6231H11.7388V11.855Z" fill="white"/>
<path d="M15.3258 19.0337V15.4443H4.56476V19.0337H15.3258Z" fill="white"/>
<path d="M25.4845 19.517C24.6609 19.9885 24.3802 21.0474 24.8575 21.8821C25.3349 22.7168 26.3894 23.0112 27.213 22.5396L33.1777 19.1245C34.0013 18.6529 34.282 17.594 33.8047 16.7594C33.3273 15.9247 32.2728 15.6303 31.4492 16.1018L25.4845 19.517Z" fill="white"/>
<path d="M23.1988 14.9016C22.3752 15.3732 22.0945 16.4321 22.5718 17.2667C23.0492 18.1014 24.1037 18.3958 24.9273 17.9243L30.892 14.5091C31.7156 14.0376 31.9963 12.9787 31.519 12.144C31.0416 11.3093 29.9871 11.0149 29.1635 11.4865L23.1988 14.9016Z" fill="white"/>
</g>
<path d="M75.3809 6.06055L71.25 29H68.4023L66.0645 17.8027L63.6914 29H60.8789L56.7832 6.06055H59.332L62.5664 24.9395L64.8691 12.6172H67.2422L69.5625 24.9395L72.7969 6.06055H75.3809ZM87.3691 9.34766H84.0996V6.06055H87.3691V9.34766ZM90.6387 29H80.8125V26.9434H84.5215V14.6738H80.8125V12.6172H86.9473V26.9434H90.6387V29ZM112.717 29H110.291V18.8926C110.291 17.4277 109.975 16.291 109.342 15.4824C108.709 14.6738 107.684 14.2695 106.266 14.2695C105.375 14.2695 104.566 14.4746 103.84 14.8848C103.125 15.2949 102.516 15.8457 102.012 16.5371C101.508 17.2168 101.121 18.002 100.852 18.8926C100.594 19.7715 100.465 20.6914 100.465 21.6523V29H98.0566V12.6172H100.465V16.7305C101.625 13.7305 103.693 12.2305 106.67 12.2305C110.701 12.2305 112.717 14.4512 112.717 18.8926V29ZM133.195 29H129.768L123.07 21.6523L120.117 24.3594V29H117.709V6.06055H120.117V21.4414L129.451 12.6172H132.896L124.688 20.1406L133.195 29ZM153.99 6.06055L149.859 29H147.012L144.674 17.8027L142.301 29H139.488L135.393 6.06055H137.941L141.176 24.9395L143.479 12.6172H145.852L148.172 24.9395L151.406 6.06055H153.99ZM165.979 9.34766H162.709V6.06055H165.979V9.34766ZM169.248 29H159.422V26.9434H163.131V14.6738H159.422V12.6172H165.557V26.9434H169.248V29ZM191.326 29H188.9V18.8926C188.9 17.4277 188.584 16.291 187.951 15.4824C187.318 14.6738 186.293 14.2695 184.875 14.2695C183.984 14.2695 183.176 14.4746 182.449 14.8848C181.734 15.2949 181.125 15.8457 180.621 16.5371C180.117 17.2168 179.73 18.002 179.461 18.8926C179.203 19.7715 179.074 20.6914 179.074 21.6523V29H176.666V12.6172H179.074V16.7305C180.234 13.7305 182.303 12.2305 185.279 12.2305C189.311 12.2305 191.326 14.4512 191.326 18.8926V29ZM211.805 29H208.377L201.68 21.6523L198.727 24.3594V29H196.318V6.06055H198.727V21.4414L208.061 12.6172H211.506L203.297 20.1406L211.805 29Z" fill="#4B164C"/>
<defs>
<clipPath id="clip0_1_3">
<rect width="40" height="30" fill="white" transform="translate(-0.00671387 0.316528)"/>
</clipPath>
</defs>
</svg>
