<svg width="183" height="45" viewBox="0 0 183 45" fill="none" xmlns="http://www.w3.org/2000/svg">
<g clip-path="url(#clip0_1115_2783)" filter="url(#filter0_d_1115_2783)">
<path d="M41.3471 33.666C46.0342 28.9758 44.3278 19.6639 37.5357 12.8674C30.7436 6.07082 21.4379 4.36329 16.7508 9.05351C12.0636 13.7437 13.77 23.0556 20.5621 29.8522C27.3542 36.6487 36.66 38.3563 41.3471 33.666Z" fill="#4B164C"/>
<path d="M27.4222 29.762C34.2143 22.9655 35.9207 13.6536 31.2336 8.96336C26.5464 4.27314 17.2407 5.98067 10.4486 12.7772C3.65651 19.5738 1.95011 28.8857 6.63724 33.5759C11.3244 38.2661 20.6301 36.5586 27.4222 29.762Z" fill="#4B164C"/>
<path d="M15.7387 17.855H12.1517V28.6231H15.7387V17.855Z" fill="#F8E7F6"/>
<path d="M19.3258 25.0337V21.4443H8.56471V25.0337H19.3258Z" fill="#F8E7F6"/>
<path d="M29.4845 25.5171C28.6609 25.9886 28.3802 27.0475 28.8575 27.8822C29.3348 28.7169 30.3894 29.0113 31.213 28.5398L37.1777 25.1246C38.0013 24.6531 38.282 23.5942 37.8047 22.7595C37.3273 21.9248 36.2728 21.6304 35.4492 22.1019L29.4845 25.5171Z" fill="#F8E7F6"/>
<path d="M27.1988 20.9014C26.3752 21.3729 26.0945 22.4318 26.5718 23.2665C27.0491 24.1012 28.1037 24.3956 28.9273 23.924L34.892 20.5089C35.7156 20.0373 35.9963 18.9784 35.5189 18.1438C35.0416 17.3091 33.9871 17.0147 33.1635 17.4862L27.1988 20.9014Z" fill="#F8E7F6"/>
</g>
<path d="M64.4156 34.7592C57.1436 34.7592 53.4716 31.2312 53.4716 24.3192C53.4716 14.1672 58.1156 8.98319 67.2236 8.98319C69.5636 8.98319 72.4796 9.52319 73.9196 10.4232C74.4596 10.7472 74.7476 11.0352 74.7476 11.5032C74.7476 12.3672 73.2356 15.5352 72.1916 15.5352C71.3276 15.5352 69.6716 14.4912 66.7916 14.4912C62.2556 14.4912 59.9516 17.5152 59.9516 23.4912C59.9516 28.0992 61.6436 29.3592 65.1716 29.3592C66.1436 29.3592 67.2236 29.2152 68.1956 28.9632L68.6276 24.6792H65.7116C64.8116 24.6792 64.5236 24.1032 64.6676 22.6992L64.7756 21.3312C64.9196 20.1072 65.3876 19.5312 66.2876 19.5312H73.2356C74.4596 19.5312 74.8916 19.9632 74.7836 20.9712L73.7036 31.2312C73.6316 32.1312 73.1996 32.4912 71.8676 33.2112C70.0316 34.1472 66.8996 34.7592 64.4156 34.7592ZM79.8191 34.5432C78.1271 34.5432 77.3351 34.0752 77.4071 33.1392L79.7831 10.5672C79.8911 9.63119 80.6831 9.19919 82.4831 9.19919H84.1391C85.5071 9.19919 86.2631 9.52319 86.7311 10.4952L90.9431 19.4952C91.2671 20.1432 91.5551 20.9712 91.6991 21.4032C91.9871 20.8632 92.4911 20.0352 92.8511 19.4952L98.8991 10.5312C99.5831 9.52319 100.483 9.19919 101.995 9.19919H103.615C105.343 9.19919 106.135 9.66719 106.063 10.6032L103.687 33.1752C103.579 34.1112 102.751 34.5432 100.951 34.5432H100.051C98.3231 34.5432 97.5671 34.0752 97.6391 33.1392L98.7911 22.0512C98.9351 21.0432 99.0431 19.9632 99.1871 19.2792L99.0431 19.2432C98.7551 19.7472 98.3231 20.3952 97.9991 20.8632L93.5711 27.3432C92.9951 28.2072 92.4911 28.4592 91.4111 28.4592H90.6191C89.6471 28.4592 89.1431 28.1712 88.7471 27.3432L85.6511 20.8632C85.4351 20.3952 85.1471 19.7472 84.9671 19.2432L84.8231 19.2792C84.7871 19.9632 84.7151 21.0432 84.6071 22.0512L83.4551 33.1752C83.3471 34.1112 82.5191 34.5432 80.7191 34.5432H79.8191ZM109.403 34.4712C108.107 34.4712 107.639 34.0392 107.747 32.9592L110.087 10.5672C110.195 9.63119 110.987 9.19919 112.787 9.19919H113.831C115.559 9.19919 116.351 9.66719 116.243 10.6032L114.335 28.9632H121.607C122.507 28.9632 122.831 29.5752 122.687 30.9792L122.543 32.5272C122.399 33.8952 121.931 34.4712 121.067 34.4712H109.403ZM127.452 34.5432C125.868 34.5432 125.076 34.0752 125.148 33.1392L127.524 10.5672C127.632 9.63119 128.388 9.19919 130.116 9.19919H131.376C132.996 9.19919 133.788 9.66719 133.716 10.6032L131.34 33.1752C131.232 34.1112 130.44 34.5432 128.712 34.5432H127.452ZM137.792 34.5432C136.1 34.5432 135.308 34.0752 135.38 33.1392L137.756 10.5672C137.864 9.63119 138.656 9.19919 140.456 9.19919H141.32C142.976 9.19919 143.552 9.41519 144.272 10.5672L150.5 21.0792C151.112 22.0512 151.76 23.2032 152.084 23.9592L152.228 23.9232C152.192 23.0952 152.3 21.9792 152.444 20.8272L153.488 10.5672C153.596 9.63119 154.388 9.19919 156.152 9.19919H157.124C158.852 9.19919 159.644 9.66719 159.572 10.6032L157.196 33.1752C157.088 34.1112 156.26 34.5432 154.46 34.5432H153.596C152.012 34.5432 151.436 34.3272 150.824 33.2832L144.452 22.6272C143.696 21.4032 143.12 20.3232 142.868 19.7112L142.724 19.7472C142.76 20.5032 142.652 21.6192 142.544 22.8792L141.464 33.1752C141.356 34.0392 140.528 34.5432 138.764 34.5432H137.792ZM163.667 34.5432C161.975 34.5432 161.183 34.0752 161.255 33.1392L163.631 10.5672C163.739 9.63119 164.531 9.19919 166.331 9.19919H167.375C169.103 9.19919 169.895 9.66719 169.823 10.6032L168.851 19.6392H168.995L175.259 10.4592C175.835 9.59519 176.483 9.19919 178.175 9.19919H179.867C181.415 9.19919 181.991 9.48719 181.991 10.0632C181.991 10.4592 181.811 10.8552 181.451 11.3592L174.107 21.6912L179.615 32.5632C179.867 33.0672 179.975 33.3912 179.975 33.7152C179.975 34.3272 179.219 34.5432 177.563 34.5432H175.943C174.251 34.5432 173.639 34.2552 173.243 33.4272L168.563 23.8512H168.419L167.447 33.1752C167.339 34.1112 166.511 34.5432 164.711 34.5432H163.667Z" fill="#4B164C"/>
<defs>
<filter id="filter0_d_1115_2783" x="-0.00671387" y="6.31641" width="48" height="38" filterUnits="userSpaceOnUse" color-interpolation-filters="sRGB">
<feFlood flood-opacity="0" result="BackgroundImageFix"/>
<feColorMatrix in="SourceAlpha" type="matrix" values="0 0 0 0 0 0 0 0 0 0 0 0 0 0 0 0 0 0 127 0" result="hardAlpha"/>
<feOffset dy="4"/>
<feGaussianBlur stdDeviation="2"/>
<feComposite in2="hardAlpha" operator="out"/>
<feColorMatrix type="matrix" values="0 0 0 0 0 0 0 0 0 0 0 0 0 0 0 0 0 0 0.25 0"/>
<feBlend mode="normal" in2="BackgroundImageFix" result="effect1_dropShadow_1115_2783"/>
<feBlend mode="normal" in="SourceGraphic" in2="effect1_dropShadow_1115_2783" result="shape"/>
</filter>
<clipPath id="clip0_1115_2783">
<rect width="40" height="30" fill="white" transform="translate(3.99329 6.31641)"/>
</clipPath>
</defs>
</svg>
