<svg width="227" height="38" viewBox="0 0 227 38" fill="none" xmlns="http://www.w3.org/2000/svg">
<g clip-path="url(#clip0_1_3)">
<path d="M37.3471 27.6659C42.0343 22.9756 40.3278 13.6638 33.5358 6.8672C26.7437 0.0706358 17.4379 -1.63689 12.7508 3.05333C8.06365 7.74354 9.77005 17.0554 16.5621 23.852C23.3542 30.6485 32.66 32.3561 37.3471 27.6659Z" fill="#4B164C"/>
<path d="M23.4222 23.7623C30.2143 16.9657 31.9207 7.65382 27.2336 2.9636C22.5465 -1.72661 13.2407 -0.0190848 6.44862 6.77748C-0.34347 13.574 -2.04988 22.8859 2.63726 27.5761C7.32439 32.2663 16.6301 30.5588 23.4222 23.7623Z" fill="#4B164C"/>
<path d="M11.7388 11.855H8.15179V22.6231H11.7388V11.855Z" fill="white"/>
<path d="M15.3258 19.0337V15.4443H4.56476V19.0337H15.3258Z" fill="white"/>
<path d="M25.4845 19.517C24.6609 19.9885 24.3802 21.0474 24.8575 21.8821C25.3349 22.7168 26.3894 23.0112 27.213 22.5396L33.1777 19.1245C34.0013 18.6529 34.282 17.594 33.8047 16.7594C33.3273 15.9247 32.2728 15.6303 31.4492 16.1018L25.4845 19.517Z" fill="white"/>
<path d="M23.1988 14.9016C22.3752 15.3732 22.0945 16.4321 22.5718 17.2667C23.0492 18.1014 24.1037 18.3958 24.9273 17.9243L30.892 14.5091C31.7156 14.0376 31.9963 12.9787 31.519 12.144C31.0416 11.3093 29.9871 11.0149 29.1635 11.4865L23.1988 14.9016Z" fill="white"/>
</g>
<path d="M65.5547 6.06055L61.4238 29H58.5762L56.2383 17.8027L53.8652 29H51.0527L46.957 6.06055H49.5059L52.7402 24.9395L55.043 12.6172H57.416L59.7363 24.9395L62.9707 6.06055H65.5547ZM77.543 9.34766H74.2734V6.06055H77.543V9.34766ZM80.8125 29H70.9863V26.9434H74.6953V14.6738H70.9863V12.6172H77.1211V26.9434H80.8125V29ZM102.891 29H100.465V18.8926C100.465 17.4277 100.148 16.291 99.5156 15.4824C98.8828 14.6738 97.8574 14.2695 96.4395 14.2695C95.5488 14.2695 94.7402 14.4746 94.0137 14.8848C93.2988 15.2949 92.6895 15.8457 92.1855 16.5371C91.6816 17.2168 91.2949 18.002 91.0254 18.8926C90.7676 19.7715 90.6387 20.6914 90.6387 21.6523V29H88.2305V12.6172H90.6387V16.7305C91.7988 13.7305 93.8672 12.2305 96.8438 12.2305C100.875 12.2305 102.891 14.4512 102.891 18.8926V29ZM123.369 29H119.941L113.244 21.6523L110.291 24.3594V29H107.883V6.06055H110.291V21.4414L119.625 12.6172H123.07L114.861 20.1406L123.369 29ZM143.057 21.6172H126.674V19.5605H143.057V21.6172ZM163.816 6.06055L159.686 29H156.838L154.5 17.8027L152.127 29H149.314L145.219 6.06055H147.768L151.002 24.9395L153.305 12.6172H155.678L157.998 24.9395L161.232 6.06055H163.816ZM175.805 9.34766H172.535V6.06055H175.805V9.34766ZM179.074 29H169.248V26.9434H172.957V14.6738H169.248V12.6172H175.383V26.9434H179.074V29ZM201.152 29H198.727V18.8926C198.727 17.4277 198.41 16.291 197.777 15.4824C197.145 14.6738 196.119 14.2695 194.701 14.2695C193.811 14.2695 193.002 14.4746 192.275 14.8848C191.561 15.2949 190.951 15.8457 190.447 16.5371C189.943 17.2168 189.557 18.002 189.287 18.8926C189.029 19.7715 188.9 20.6914 188.9 21.6523V29H186.492V12.6172H188.9V16.7305C190.061 13.7305 192.129 12.2305 195.105 12.2305C199.137 12.2305 201.152 14.4512 201.152 18.8926V29ZM221.631 29H218.203L211.506 21.6523L208.553 24.3594V29H206.145V6.06055H208.553V21.4414L217.887 12.6172H221.332L213.123 20.1406L221.631 29Z" fill="#4B164C"/>
<defs>
<clipPath id="clip0_1_3">
<rect width="40" height="30" fill="white" transform="translate(-0.00671387 0.316528)"/>
</clipPath>
</defs>
</svg>
